<svg width="260" height="336" viewBox="0 0 260 336" fill="none" xmlns="http://www.w3.org/2000/svg">
<path d="M200.043 257.98C199.644 255.15 199.356 251.712 199.28 247.899C198.471 206.841 243.407 180.59 252.011 140.436C255.834 122.591 254.729 102.077 243.526 80.8117C233.779 59.6939 198.543 20.4786 135.568 32.56C108.703 38.085 56.2483 64.8997 61.3463 127.958C62.7325 139.281 67.7113 160.226 77.9322 176.917C86.6618 191.173 101.851 200.732 109.187 215.752C110.551 218.544 111.775 221.5 112.771 224.578C118.791 243.182 108.523 275.76 128.07 275.292V275.292H185.423" stroke="#054511" stroke-width="11" stroke-linecap="round"/>
<path d="M169.02 195.585C167.587 226.029 188.383 251.832 199.418 260.217C200.054 260.7 200.917 260.228 200.895 259.429C200.698 252.282 199.683 235.795 200.914 227.053C200.922 226.992 200.935 226.938 200.955 226.88C204.31 217.116 219.764 195.062 228.262 187.521C228.308 187.481 228.348 187.438 228.385 187.391C262.248 144.29 251.094 95.8986 239.589 75.6058C223.382 43.7271 175.691 32.4982 152.711 31.3893C151.631 31.3372 151.352 32.7227 152.343 33.1535C164.782 38.5604 189.838 50.7721 200.926 71.5449C213.539 95.1716 204.455 127.658 194.545 140.948C184.635 154.238 169.02 176.376 169.02 195.585Z" fill="#054511" stroke="#054511" stroke-width="6"/>
<path d="M106.712 118.175C86.2333 133.093 82.6132 158.763 83.7198 174.533C83.9394 177.662 87.1881 179.529 89.9235 177.997C110.448 166.501 114.374 139.207 113.482 121.508C113.307 118.027 109.525 116.125 106.712 118.175Z" fill="#054511" stroke="#054511" stroke-width="6"/>
<path d="M112.334 250.501C103.192 226.113 85.0815 216.362 73.0059 213.633C69.9272 212.938 67.5067 215.657 68.3567 218.688C74.998 242.368 94.1799 252.681 107.604 255.995C110.952 256.822 113.544 253.728 112.334 250.501Z" fill="#054511" stroke="#054511" stroke-width="6"/>
<path d="M49.9989 9.78267C43.2792 33.9357 56.5561 56.3264 67.3171 68.0474C69.4372 70.3568 73.1648 69.8131 74.3627 66.9218C83.2675 45.4294 69.2148 21.5702 57.4108 8.19513C55.1045 5.58175 50.9303 6.43471 49.9989 9.78267Z" fill="#054511" stroke="#054511" stroke-width="6"/>
<path d="M5.84075 105.295C15.5085 128.452 39.9226 138.241 55.7098 141.081C58.8052 141.638 61.4047 138.95 60.5534 135.923C54.2657 113.564 28.3256 103.071 10.6835 99.5424C7.25087 98.8557 4.49218 102.065 5.84075 105.295Z" fill="#054511" stroke="#054511" stroke-width="6"/>
<path d="M205.639 56.7756C204.841 56.3429 204.051 55.9335 203.273 55.5479C204.087 55.935 204.876 56.3445 205.639 56.7756C229.408 69.6572 260.929 103.266 224.937 148.953C222.923 151.51 219.003 149.21 219.914 146.084C228.501 116.615 233.406 72.4467 205.639 56.7756Z" fill="#9EAF1B"/>
<path d="M203.273 55.5479C227.214 67.4129 262.138 101.731 224.937 148.953C222.923 151.51 219.003 149.21 219.914 146.084C228.737 115.805 233.673 70.0056 203.273 55.5479Z" stroke="#054511"/>
<path d="M200.043 257.98C199.644 255.15 199.356 251.712 199.28 247.899C198.471 206.841 243.407 180.59 252.011 140.436C255.834 122.591 254.729 102.077 243.526 80.8117C233.779 59.6939 198.543 20.4786 135.568 32.56C108.703 38.085 56.2483 64.8997 61.3463 127.958C62.7325 139.281 67.7113 160.226 77.9322 176.917C86.6618 191.173 101.851 200.732 109.187 215.752C110.551 218.544 111.775 221.5 112.771 224.578C118.791 243.182 108.523 275.76 128.07 275.292V275.292H185.423" stroke="#054511" stroke-width="11" stroke-linecap="round"/>
<path d="M169.02 195.585C167.587 226.029 188.383 251.832 199.418 260.217C200.054 260.7 200.917 260.228 200.895 259.429C200.698 252.282 199.683 235.795 200.914 227.053C200.922 226.992 200.935 226.938 200.955 226.88C204.31 217.116 219.764 195.062 228.262 187.521C228.308 187.481 228.348 187.438 228.385 187.391C262.248 144.29 251.094 95.8986 239.589 75.6058C223.382 43.7271 175.691 32.4982 152.711 31.3893C151.631 31.3372 151.352 32.7227 152.343 33.1535C164.782 38.5604 189.838 50.7721 200.926 71.5449C213.539 95.1716 204.455 127.658 194.545 140.948C184.635 154.238 169.02 176.376 169.02 195.585Z" fill="#054511" stroke="#054511" stroke-width="6"/>
<path d="M111.538 115.049C84.2639 130.693 81.8734 163.546 84.2395 179.344C84.3325 179.965 84.9878 180.324 85.5693 180.088C112.55 169.127 115.187 133.663 112.994 115.765C112.91 115.073 112.142 114.702 111.538 115.049Z" fill="#054511" stroke="#054511" stroke-width="6"/>
<path d="M114.108 255.811C104.621 223.708 80.4 213.927 68.2261 212.87C67.5997 212.816 67.1233 213.376 67.2437 213.992C73.2603 244.772 99.3885 255.344 113.109 257.026C113.791 257.109 114.303 256.47 114.108 255.811Z" fill="#054511" stroke="#054511" stroke-width="6"/>
<path d="M51.8516 4.3374C40.2066 33.1833 58.945 60.493 70.7178 71.489C71.1766 71.9175 71.9177 71.7951 72.2301 71.2513C86.5829 46.2684 66.4009 16.7531 53.4469 3.99737C52.9496 3.5077 52.1122 3.69197 51.8516 4.3374Z" fill="#054511" stroke="#054511" stroke-width="6"/>
<path d="M3.91614 99.8292C12.5727 129.671 44.365 140.101 60.5132 141.768C61.139 141.832 61.6469 141.287 61.5567 140.664C57.442 112.263 23.1376 100.948 4.96096 98.5926C4.26663 98.5027 3.7211 99.1569 3.91614 99.8292Z" fill="#054511" stroke="#054511" stroke-width="6"/>
<path d="M205.639 56.7756C204.841 56.3429 204.051 55.9335 203.273 55.5479C204.087 55.935 204.876 56.3445 205.639 56.7756C229.408 69.6572 260.929 103.266 224.937 148.953C222.923 151.51 219.003 149.21 219.914 146.084C228.501 116.615 233.406 72.4467 205.639 56.7756Z" fill="#9EAF1B"/>
<path d="M203.273 55.5479C227.214 67.4129 262.138 101.731 224.937 148.953C222.923 151.51 219.003 149.21 219.914 146.084C228.737 115.805 233.673 70.0056 203.273 55.5479Z" stroke="#054511"/>
<line x1="135" y1="291.296" x2="188" y2="291.296" stroke="#054511" stroke-width="10" stroke-linecap="round"/>
<line x1="147" y1="310.296" x2="175" y2="310.296" stroke="#054511" stroke-width="10" stroke-linecap="round"/>
<line x1="158" y1="330.296" x2="165" y2="330.296" stroke="#054511" stroke-width="10" stroke-linecap="round"/>
</svg>
